<svg xmlns="http://www.w3.org/2000/svg" xmlns:xlink="http://www.w3.org/1999/xlink" width="40" height="40" viewBox="0 0 40 40">  <defs>    <path id="f46e5a6d-7d66-4f5f-8628-7f4ceb95844a-a" d="M0 0h27v24.104H0z"/>  </defs>  <g fill="none" fill-rule="evenodd" transform="translate(7 4)">    <g transform="translate(0 7.658)">      <mask id="f46e5a6d-7d66-4f5f-8628-7f4ceb95844a-b" fill="#fff">        <use xlink:href="#f46e5a6d-7d66-4f5f-8628-7f4ceb95844a-a"/>      </mask>      <path fill="#FFF" d="M20.06.016c-2.73-.194-5.046 1.46-6.339 1.46-1.311 0-3.332-1.418-5.475-1.38-2.814.04-5.408 1.57-6.86 3.983-2.922 4.86-.745 12.06 2.102 16.004 1.392 1.927 3.053 4.098 5.235 4.02 2.1-.08 2.895-1.302 5.433-1.302 2.536 0 3.252 1.301 5.473 1.262 2.26-.04 3.692-1.967 5.075-3.904 1.6-2.237 2.257-4.403 2.296-4.517-.05-.018-4.406-1.619-4.45-6.426-.039-4.019 3.425-5.951 3.583-6.044C24.167.398 21.129.092 20.059.016z" mask="url(#f46e5a6d-7d66-4f5f-8628-7f4ceb95844a-b)"/>    </g>    <path fill="#FFF" d="M18.375 5.07c1.16-1.342 1.94-3.21 1.725-5.07-1.669.063-3.687 1.065-4.884 2.406-1.072 1.188-2.013 3.091-1.757 4.912 1.86.138 3.758-.904 4.916-2.247z"/>  </g></svg>